<svg xmlns="http://www.w3.org/2000/svg" width="36.765" height="36.765" viewBox="0 0 36.765 36.765">
  <g id="social-facebook-circular-button" transform="translate(0.75 0.75)">
    <path id="Path_45" data-name="Path 45" d="M17.632,0A17.632,17.632,0,1,0,35.265,17.632,17.632,17.632,0,0,0,17.632,0Zm0,32.51A14.877,14.877,0,1,1,32.509,17.632,14.877,14.877,0,0,1,17.632,32.51Z" fill="#e2e2e2" stroke="#fff" stroke-width="1.5"/>
    <path id="Path_46" data-name="Path 46" d="M201.893,132.856h-2.435v-1.777c0-.545.564-.671.827-.671h1.573v-2.4l-1.8-.009a2.762,2.762,0,0,0-3.021,2.935v1.921H195.25v2.471h1.785V142h2.424v-6.671h2.059Z" transform="translate(-180.939 -117.366)" fill="#171717"/>
  </g>
</svg>
