<svg id="Logo" xmlns="http://www.w3.org/2000/svg" width="209.479" height="40.882" viewBox="0 0 209.479 40.882">
  <g id="Group_235" data-name="Group 235" transform="translate(46.99 9.609)">
    <path id="Path_374" data-name="Path 374" d="M42.741,23.6a5.926,5.926,0,0,0,2.345.791,1.713,1.713,0,0,0,.867-.182L40.942,12.5h5.524l2.248,6.418L50.771,12.5H56.2L51.766,23.814c-1.253,3.194-2.6,4.471-5.557,4.471A10.808,10.808,0,0,1,41.2,27.038L42.741,23.6Zm12.944-2.4c0-2.464,1.9-3.8,4.882-3.8a9.561,9.561,0,0,1,3.019.456v-.213c0-1.125-.739-1.764-2.377-1.764a9.886,9.886,0,0,0-3.565.7L56.713,13.2a15.119,15.119,0,0,1,5.4-.882c2.6,0,4.3.517,5.428,1.582a4.877,4.877,0,0,1,1.349,3.863v6.9H63.554V23.449A4.974,4.974,0,0,1,59.86,24.97c-2.441-.03-4.175-1.338-4.175-3.772Zm7.965-1.034v-.517a3.617,3.617,0,0,0-1.221-.213c-1.06,0-1.638.608-1.638,1.369v.03a1.176,1.176,0,0,0,1.221,1.186,1.648,1.648,0,0,0,1.638-1.855ZM70.46,8.423h5.332V24.666H70.46V8.423Zm7.034,0h5.332V24.666H77.494V8.423ZM83.982,21.2c0-2.464,1.9-3.8,4.882-3.8a9.561,9.561,0,0,1,3.019.456v-.213c0-1.125-.739-1.764-2.377-1.764a9.886,9.886,0,0,0-3.565.7L85.009,13.2a15.119,15.119,0,0,1,5.4-.882c2.6,0,4.3.517,5.428,1.582a4.877,4.877,0,0,1,1.349,3.863v6.9H91.851V23.449a4.974,4.974,0,0,1-3.694,1.521c-2.441-.03-4.175-1.338-4.175-3.772Zm7.965-1.034v-.517a3.617,3.617,0,0,0-1.221-.213c-1.06,0-1.638.608-1.638,1.369v.03a1.176,1.176,0,0,0,1.221,1.186,1.648,1.648,0,0,0,1.638-1.855Z" transform="translate(-40.942 -8.423)" fill="#e84c9b"/>
    <path id="Path_375" data-name="Path 375" d="M90.771,18.148c0-3.437,2.826-6.387,7-6.387a6.152,6.152,0,0,1,5.813,3.376l-3.822,2.038a2.01,2.01,0,0,0-3.854.912v.03a2.008,2.008,0,0,0,1.9,2.19A2.257,2.257,0,0,0,99.8,19.091l3.886,2.1a6.991,6.991,0,0,1-12.912-3.042Zm13.008,0v-.061c0-3.437,3.019-6.357,7.227-6.357s7.195,2.89,7.195,6.327v.03c0,3.437-3.019,6.357-7.227,6.357s-7.195-2.89-7.195-6.3Zm9.282,0v-.061a2.114,2.114,0,0,0-2.12-2.16,2.054,2.054,0,0,0-2.056,2.129v.03a2.114,2.114,0,0,0,2.12,2.16A2.046,2.046,0,0,0,113.061,18.148ZM119.389,12h5.332v1.612a5,5,0,0,1,3.886-1.916,4.044,4.044,0,0,1,3.79,2.007,5.639,5.639,0,0,1,4.336-2.007,4.1,4.1,0,0,1,4.432,4.441v8.03h-5.332V17.722a1.444,1.444,0,0,0-1.413-1.612,1.49,1.49,0,0,0-1.477,1.612V24.17h-5.332V17.722A1.444,1.444,0,0,0,126.2,16.11a1.49,1.49,0,0,0-1.477,1.612V24.17h-5.332V12Zm23.318,0h5.332v1.49a4.893,4.893,0,0,1,3.822-1.795c3.116,0,5.524,2.555,5.524,6.266V18c0,3.863-2.441,6.418-5.492,6.418a4.856,4.856,0,0,1-3.854-1.673V27.7h-5.332V12Zm9.507,6.114a2.154,2.154,0,0,0-2.152-2.22,2.128,2.128,0,0,0-2.152,2.19v.03a2.152,2.152,0,1,0,4.3,0Zm5.878,2.585c0-2.464,1.9-3.8,4.882-3.8a9.561,9.561,0,0,1,3.019.456v-.213c0-1.125-.739-1.764-2.377-1.764a9.886,9.886,0,0,0-3.565.7L159.12,12.7a15.119,15.119,0,0,1,5.4-.882c2.6,0,4.3.517,5.428,1.582a4.877,4.877,0,0,1,1.349,3.863v6.9h-5.332V22.953a4.974,4.974,0,0,1-3.694,1.521c-2.441-.03-4.175-1.338-4.175-3.772Zm7.965-1.034v-.517a3.617,3.617,0,0,0-1.221-.213c-1.06,0-1.638.608-1.638,1.369v.03a1.176,1.176,0,0,0,1.221,1.186,1.648,1.648,0,0,0,1.638-1.855ZM172.834,12h5.332v2.464a3.879,3.879,0,0,1,4.015-2.616V17.2H181.6c-2.248,0-3.469,1.186-3.469,3.863v3.1H172.8L172.834,12Zm9.764,6.144a6.333,6.333,0,0,1,6.616-6.418c4.561,0,6.681,3.011,6.681,6.691a7.553,7.553,0,0,1-.032.852h-8.255a2.4,2.4,0,0,0,2.409,1.612,3.622,3.622,0,0,0,2.6-1.247l2.859,2.16a7.124,7.124,0,0,1-5.846,2.646c-4.175,0-7.034-2.494-7.034-6.3Zm8.415-1.095a1.815,1.815,0,0,0-1.8-1.825c-.9,0-1.542.7-1.7,1.825Z" transform="translate(-33.407 -7.928)" fill="#2166b1"/>
  </g>
  <path id="Path_376" data-name="Path 376" d="M39.709,27.938a20.516,20.516,0,0,1-34.275,6.31,16.075,16.075,0,0,0,2.632.216c4.455,0,6.489-1.9,8.377-6.666l6.682-16.868H14.942l-3.1,9.568-3.39-9.568H2.514a20.515,20.515,0,0,1,37.119,1.978,10.028,10.028,0,0,0-6.27-1.978c-6.3,0-10.556,4.4-10.556,9.522,0,5.079,4.31,9.432,10.169,9.477a10.889,10.889,0,0,0,6.733-1.991Zm1.063-3.753-4.358-2.327a3.408,3.408,0,0,1-3,1.814,3.022,3.022,0,0,1-2.857-3.31,3.02,3.02,0,0,1,2.954-3.174A3.064,3.064,0,0,1,36.365,19l4.377-2.308a20.612,20.612,0,0,1,.029,7.491ZM2.058,29.2A20.469,20.469,0,0,1,1.306,13.66L7.679,28.387a2.608,2.608,0,0,1-1.307.272A9.006,9.006,0,0,1,2.837,27.48L2.058,29.2Z" transform="translate(-0.125 -0.077)" fill="#2166b1" fill-rule="evenodd"/>
</svg>
