<svg id="menu_1_" data-name="menu (1)" xmlns="http://www.w3.org/2000/svg" width="16.577" height="16.821" viewBox="0 0 16.577 16.821">
  <g id="Group_238" data-name="Group 238">
    <g id="Group_237" data-name="Group 237">
      <path id="Path_377" data-name="Path 377" d="M7,0H3.1a.488.488,0,0,0-.488.488v3.9a.488.488,0,0,0,.488.488H7a.488.488,0,0,0,.488-.488V.488A.488.488,0,0,0,7,0Z" transform="translate(-2.612)" fill="#1c1c1c"/>
      <path id="Path_378" data-name="Path 378" d="M132.388,0h-3.9A.488.488,0,0,0,128,.488v3.9a.488.488,0,0,0,.488.488h3.9a.488.488,0,0,0,.488-.488V.488A.488.488,0,0,0,132.388,0Z" transform="translate(-122.149)" fill="#1c1c1c"/>
      <path id="Path_379" data-name="Path 379" d="M7,125.388H3.1a.488.488,0,0,0-.488.488v3.9a.488.488,0,0,0,.488.488H7a.488.488,0,0,0,.488-.488v-3.9A.488.488,0,0,0,7,125.388Z" transform="translate(-2.612 -119.537)" fill="#1c1c1c"/>
      <path id="Path_380" data-name="Path 380" d="M132.388,125.388h-3.9a.488.488,0,0,0-.488.488v3.9a.488.488,0,0,0,.488.488h3.9a.488.488,0,0,0,.488-.488v-3.9A.488.488,0,0,0,132.388,125.388Z" transform="translate(-122.149 -119.537)" fill="#1c1c1c"/>
      <path id="Path_381" data-name="Path 381" d="M257.776,0h-3.9a.488.488,0,0,0-.488.488v3.9a.488.488,0,0,0,.488.488h3.9a.488.488,0,0,0,.488-.488V.488A.488.488,0,0,0,257.776,0Z" transform="translate(-241.687)" fill="#1c1c1c"/>
      <path id="Path_382" data-name="Path 382" d="M257.776,125.388h-3.9a.488.488,0,0,0-.488.488v3.9a.488.488,0,0,0,.488.488h3.9a.488.488,0,0,0,.488-.488v-3.9A.488.488,0,0,0,257.776,125.388Z" transform="translate(-241.687 -119.537)" fill="#1c1c1c"/>
      <path id="Path_383" data-name="Path 383" d="M7,256H3.1a.488.488,0,0,0-.488.488v3.9a.488.488,0,0,0,.488.488H7a.488.488,0,0,0,.488-.488v-3.9A.488.488,0,0,0,7,256Z" transform="translate(-2.612 -244.055)" fill="#1c1c1c"/>
      <path id="Path_384" data-name="Path 384" d="M132.388,256h-3.9a.488.488,0,0,0-.488.488v3.9a.488.488,0,0,0,.488.488h3.9a.488.488,0,0,0,.488-.488v-3.9A.488.488,0,0,0,132.388,256Z" transform="translate(-122.149 -244.055)" fill="#1c1c1c"/>
      <path id="Path_385" data-name="Path 385" d="M257.776,256h-3.9a.488.488,0,0,0-.488.488v3.9a.488.488,0,0,0,.488.488h3.9a.488.488,0,0,0,.488-.488v-3.9A.488.488,0,0,0,257.776,256Z" transform="translate(-241.687 -244.055)" fill="#1c1c1c"/>
    </g>
  </g>
</svg>
