<svg id="star_2_" data-name="star (2)" xmlns="http://www.w3.org/2000/svg" width="15.058" height="14.36" viewBox="0 0 15.058 14.36">
  <path id="Path_390" data-name="Path 390" d="M14.7,17.064l-4.877-.452-1.937-4.5a.391.391,0,0,0-.718,0l-1.937,4.5-4.877.452a.391.391,0,0,0-.222.683l3.68,3.233L2.736,25.759a.391.391,0,0,0,.581.422l4.212-2.5,4.212,2.5a.391.391,0,0,0,.581-.422L11.245,20.98l3.68-3.233A.391.391,0,0,0,14.7,17.064Z" transform="translate(0 -11.877)" fill="#ffdc64"/>
  <path id="Path_391" data-name="Path 391" d="M7.888,12.113a.391.391,0,0,0-.718,0l-1.937,4.5-4.877.452a.391.391,0,0,0-.222.683l3.68,3.233L2.736,25.759a.391.391,0,0,0,.581.422l.94-.558A17.238,17.238,0,0,1,8.846,14.338Z" transform="translate(0 -11.877)" fill="#ffc850"/>
</svg>
