<svg xmlns="http://www.w3.org/2000/svg" width="36.765" height="36.765" viewBox="0 0 36.765 36.765">
  <g id="social-twitter-circular-button" transform="translate(0.75 0.75)">
    <path id="Path_47" data-name="Path 47" d="M17.632,0A17.632,17.632,0,1,0,35.265,17.632,17.632,17.632,0,0,0,17.632,0Zm0,32.51A14.877,14.877,0,1,1,32.509,17.632,14.877,14.877,0,0,1,17.632,32.51Z" fill="#e2e2e2" stroke="#fff" stroke-width="1.5"/>
    <path id="Path_48" data-name="Path 48" d="M141.892,145.461a4.763,4.763,0,0,1-1.591.486,3.257,3.257,0,0,0,1.195-1.676,4.436,4.436,0,0,1-1.788.682,0,0,0,0,0,0,0,2.766,2.766,0,0,0-2.073-.954,2.983,2.983,0,0,0-2.866,3.087,3.268,3.268,0,0,0,.074.688h0a8.062,8.062,0,0,1-6.071-3.2,3.232,3.232,0,0,0,.869,4.078,1.746,1.746,0,0,1-1.251-.348,2.951,2.951,0,0,0,2.211,3.015,2.093,2.093,0,0,1-1.193.1,2.759,2.759,0,0,0,2.562,2.1A4.5,4.5,0,0,1,128,154.791a8.152,8.152,0,0,0,4.483,1.365c4.624,0,8.215-4.035,8.022-9.014,0-.006,0-.012,0-.017s0-.027,0-.039,0-.03,0-.047A5.162,5.162,0,0,0,141.892,145.461Z" transform="translate(-117.133 -132.446)" fill="#171717"/>
  </g>
</svg>
