<svg xmlns="http://www.w3.org/2000/svg" width="19.374" height="19.374" viewBox="0 0 19.374 19.374">
  <g id="user_9_" data-name="user (9)" transform="translate(0.35 0.35)">
    <g id="Group_240" data-name="Group 240" transform="translate(0)">
      <path id="Path_387" data-name="Path 387" d="M15.94,12.072a9.3,9.3,0,0,0-3.548-2.226,5.4,5.4,0,1,0-6.108,0A9.352,9.352,0,0,0,0,18.674H1.459a7.878,7.878,0,0,1,15.757,0h1.459A9.276,9.276,0,0,0,15.94,12.072Zm-6.6-2.735A3.939,3.939,0,1,1,13.276,5.4,3.944,3.944,0,0,1,9.337,9.337Z" transform="translate(0)" stroke="#000" stroke-width="0.7"/>
    </g>
  </g>
</svg>
