<svg id="youtube-logo" xmlns="http://www.w3.org/2000/svg" width="13.609" height="16.331" viewBox="0 0 13.609 16.331">
  <path id="YouTube" d="M19.011,11.946h-.9l0-.521A.423.423,0,0,1,18.541,11H18.6a.423.423,0,0,1,.423.421ZM15.65,10.83a.383.383,0,0,0-.413.34V13.7a.422.422,0,0,0,.828,0V11.17A.383.383,0,0,0,15.65,10.83Zm5.459-1.416V14.23a2.173,2.173,0,0,1-2.226,2.1H9.727A2.173,2.173,0,0,1,7.5,14.23V9.414a2.173,2.173,0,0,1,2.227-2.1h9.156A2.173,2.173,0,0,1,21.109,9.414ZM10.337,14.753V9.68h1.135V8.928l-3.026,0v.739l.944,0v5.088Zm3.4-4.318h-.946v2.709a4.8,4.8,0,0,1,0,.657c-.077.21-.423.433-.558.023a5.392,5.392,0,0,1,0-.661l0-2.728h-.941l0,2.685c0,.412-.009.718,0,.858.023.246.015.533.243.7a1.143,1.143,0,0,0,1.446-.484l0,.559h.76V10.435Zm3.027,3.1,0-2.255c0-.859-.644-1.374-1.516-.679l0-1.676h-.945l0,5.787.777-.011.071-.36C16.144,15.255,16.768,14.631,16.767,13.538Zm2.961-.3-.709,0c0,.028,0,.061,0,.1v.4a.387.387,0,0,1-.388.385H18.49a.387.387,0,0,1-.388-.385V12.693h1.625v-.612a9.649,9.649,0,0,0-.048-1.149c-.116-.808-1.251-.936-1.824-.523a1.068,1.068,0,0,0-.4.534,3.009,3.009,0,0,0-.121.953v1.345C17.337,15.477,20.052,15.161,19.728,13.239Zm-3.64-7.3a.644.644,0,0,0,.228.287.659.659,0,0,0,.387.107.6.6,0,0,0,.363-.113.87.87,0,0,0,.265-.34l-.018.371h1.055V1.767h-.83V5.259a.346.346,0,0,1-.692,0V1.767H15.98V4.793c0,.385.007.642.019.773A1.3,1.3,0,0,0,16.089,5.939Zm-3.2-2.533A3.733,3.733,0,0,1,13,2.4a1.08,1.08,0,0,1,1.1-.8,1.308,1.308,0,0,1,.628.142,1.046,1.046,0,0,1,.4.368,1.452,1.452,0,0,1,.2.467,3.725,3.725,0,0,1,.053.735V4.439a6.142,6.142,0,0,1-.049.917,1.453,1.453,0,0,1-.208.545.986.986,0,0,1-.406.373,1.3,1.3,0,0,1-.572.12,1.589,1.589,0,0,1-.61-.1.837.837,0,0,1-.389-.311,1.381,1.381,0,0,1-.2-.5,4.847,4.847,0,0,1-.059-.884V3.406Zm.826,1.782a.421.421,0,1,0,.838,0V2.8a.421.421,0,1,0-.838,0ZM10.8,6.394h1V2.953L12.971.006H11.883L11.258,2.2,10.624,0H9.547L10.8,2.955Z" transform="translate(-7.5)" fill="#171717"/>
</svg>
